<svg width="30" height="32" viewBox="0 0 30 32" fill="none" xmlns="http://www.w3.org/2000/svg">
<g clip-path="url(#clip0_1_7)">
<path d="M29.1621 11.985H1.83991C1.49714 11.985 1.21893 12.2821 1.21893 12.6482V28.5632C1.21893 30.3907 2.61114 31.8788 4.3237 31.8788H26.6782C28.3908 31.8788 29.7829 30.3907 29.7829 28.5632V12.6482C29.783 12.2821 29.5048 11.985 29.1621 11.985ZM28.5411 28.5631C28.5411 29.66 27.7053 30.5525 26.6782 30.5525H4.32376C3.29667 30.5525 2.46089 29.66 2.46089 28.5631V13.3113H28.5411V28.5631Z" fill="white"/>
<path d="M29.7632 5.84844L28.7063 1.566C28.463 0.524874 27.467 -0.128946 26.4796 0.109779L1.46 6.44923C0.968203 6.56859 0.552143 6.8882 0.287615 7.34712C0.0230872 7.80598 -0.0551534 8.3471 0.0690186 8.87229L1.2389 13.8112C1.30847 14.1109 1.56182 14.3112 1.83997 14.3112C1.88963 14.3112 1.94056 14.306 1.99395 14.2913C2.32554 14.2025 2.52673 13.8417 2.44226 13.4863L2.37397 13.1986L29.2999 6.66545C29.4638 6.62436 29.6066 6.51556 29.6936 6.36176C29.7819 6.2079 29.8054 6.0222 29.7632 5.84844ZM2.0698 11.9121L1.27249 8.55001C1.23151 8.37495 1.25881 8.1946 1.34578 8.04073C1.43398 7.88823 1.57305 7.78211 1.74193 7.73965L26.7615 1.40157C26.8062 1.38963 26.8522 1.38435 26.8969 1.38435C27.1751 1.38435 27.4321 1.58857 27.5029 1.89493L28.3983 5.52224L2.0698 11.9121Z" fill="white"/>
<path d="M7.08577 12.054C6.77775 11.8935 6.40768 12.0234 6.2512 12.3511L3.76735 17.6561C3.6146 17.9836 3.73877 18.3815 4.04556 18.546C4.1362 18.5937 4.23063 18.6163 4.32377 18.6163C4.55104 18.6163 4.77086 18.4823 4.88013 18.249L7.36398 12.944C7.51673 12.6163 7.3925 12.2184 7.08577 12.054Z" fill="white"/>
<path d="M13.2941 12.054C12.9874 11.8935 12.6148 12.0234 12.4608 12.3511L9.97695 17.6561C9.82419 17.9836 9.94837 18.3815 10.2552 18.546C10.3458 18.5937 10.4402 18.6163 10.5334 18.6163C10.7606 18.6163 10.9805 18.4823 11.0885 18.249L13.5723 12.944C13.725 12.6163 13.6009 12.2184 13.2941 12.054Z" fill="white"/>
<path d="M19.5037 12.054C19.1982 11.8935 18.8256 12.0234 18.6703 12.3511L16.1865 17.6561C16.0337 17.9836 16.1579 18.3815 16.4647 18.546C16.5553 18.5937 16.6498 18.6163 16.7429 18.6163C16.9702 18.6163 17.19 18.4823 17.298 18.249L19.7819 12.944C19.9346 12.6163 19.8104 12.2184 19.5037 12.054Z" fill="white"/>
<path d="M25.7133 12.054C25.4053 11.8935 25.0352 12.0234 24.8799 12.3511L22.3961 17.6561C22.2433 17.9836 22.3675 18.3815 22.6743 18.546C22.7649 18.5937 22.8594 18.6163 22.9525 18.6163C23.1798 18.6163 23.3996 18.4823 23.5076 18.249L25.9915 12.944C26.1442 12.6163 26.02 12.2184 25.7133 12.054Z" fill="white"/>
<path d="M29.1621 17.29H1.83991C1.49714 17.29 1.21893 17.5871 1.21893 17.9532C1.21893 18.3192 1.49714 18.6163 1.83991 18.6163H29.1621C29.506 18.6163 29.783 18.3192 29.783 17.9532C29.783 17.5871 29.5048 17.29 29.1621 17.29Z" fill="white"/>
<path d="M7.84458 10.8272L3.56743 6.25961C3.32526 6.00099 2.93155 6.00099 2.68938 6.25961C2.44721 6.51823 2.44721 6.93867 2.68938 7.19729L6.96653 11.7662C7.08826 11.8948 7.24718 11.9599 7.40617 11.9599C7.56515 11.9599 7.72408 11.8949 7.84458 11.7649C8.08676 11.5062 8.08676 11.0858 7.84458 10.8272Z" fill="white"/>
<path d="M13.92 9.35373L9.63921 4.78613C9.39704 4.52751 9.00333 4.52751 8.76116 4.78613C8.51899 5.04475 8.51899 5.46519 8.76116 5.72381L13.0408 10.2914C13.1625 10.42 13.3215 10.4851 13.4804 10.4851C13.6394 10.4851 13.7984 10.4201 13.9201 10.2914C14.1623 10.0328 14.1623 9.61235 13.92 9.35373Z" fill="white"/>
<path d="M19.9905 7.88028L15.7171 3.31137C15.4749 3.05275 15.0812 3.05275 14.839 3.31137C14.5969 3.56998 14.5969 3.99043 14.839 4.24904L19.1125 8.81795C19.2342 8.94658 19.3931 9.01161 19.5521 9.01161C19.7111 9.01161 19.87 8.94795 19.9905 8.81795C20.2327 8.55934 20.2327 8.13889 19.9905 7.88028Z" fill="white"/>
<path d="M26.0585 6.40814L21.7838 1.83923C21.5416 1.58061 21.1479 1.58061 20.9058 1.83923C20.6636 2.09785 20.6636 2.51829 20.9058 2.77691L25.1804 7.34582C25.3021 7.47444 25.4611 7.53947 25.62 7.53947C25.779 7.53947 25.9379 7.47451 26.0584 7.34582C26.3007 7.0872 26.3007 6.66676 26.0585 6.40814Z" fill="white"/>
</g>
<defs>
<clipPath id="clip0_1_7">
<rect width="29.7949" height="31.8182" fill="white" transform="translate(0 0.0606079)"/>
</clipPath>
</defs>
</svg>
